<svg viewBox="0 0 40 40" fill="none" xmlns="http://www.w3.org/2000/svg">
<path d="M9.85595 4.5489C9.85595 2.03664 11.8926 0 14.4049 0H25.5648C28.0771 0 30.1137 2.03664 30.1137 4.5489V5.45868C30.1137 7.97094 28.0771 10.0076 25.5648 10.0076H14.4049C13.6307 10.0076 12.8278 10.1761 12.2803 10.7235L10.7235 12.2803C10.1761 12.8278 10.0076 13.6307 10.0076 14.4049V25.5648C10.0076 26.339 10.1761 27.142 10.7236 27.6894L12.3213 29.2872C12.8585 29.8243 13.6452 29.9924 14.4049 29.9924H25.5648C26.3436 29.9924 27.1518 29.8237 27.7025 29.273L29.273 27.7025C29.8237 27.1518 29.9924 26.3436 29.9924 25.5648V14.4049C29.9924 11.8926 32.0291 9.85595 34.5413 9.85595H35.4511C37.9634 9.85595 40 11.8926 40 14.4049V25.5648C40 28.0771 37.9634 30.1137 35.4511 30.1137H34.5413C33.6289 30.1137 32.669 30.2816 32.0238 30.9267L30.9268 32.0238C30.2816 32.669 30.1137 33.6289 30.1137 34.5413V35.4511C30.1137 37.9634 28.0771 40 25.5648 40H14.4049C11.8926 40 9.85595 37.9634 9.85595 35.4511V34.5413C9.85595 33.6108 9.68893 32.6298 9.03094 31.9718L7.98871 30.9296C7.34047 30.2814 6.37544 30.1137 5.45868 30.1137H4.5489C2.03664 30.1137 0 28.0771 0 25.5648V14.4049C0 11.8926 2.03664 9.85595 4.5489 9.85595H5.45868C6.37547 9.85595 7.34054 9.68828 7.98881 9.04001L9.04001 7.98881C9.68828 7.34054 9.85595 6.37547 9.85595 5.45868V4.5489Z" fill="#1B2130"/>
</svg>
